<svg xmlns="http://www.w3.org/2000/svg" viewBox="0 0 900 1125" role="img" aria-labelledby="title desc"><title id="title">TECHNOVA social media campaign</title><desc id="desc">Premium technology campaign artwork with an illuminated AI device and futuristic grid.</desc><defs><linearGradient id="bg" x2="1" y2="1"><stop stop-color="#070b18"/><stop offset=".55" stop-color="#101d42"/><stop offset="1" stop-color="#08090d"/></linearGradient><radialGradient id="glow"><stop stop-color="#55e6ff" stop-opacity=".9"/><stop offset="1" stop-color="#3d6dff" stop-opacity="0"/></radialGradient><linearGradient id="device" x2="1" y2="1"><stop stop-color="#d8ffff"/><stop offset=".4" stop-color="#55e6ff"/><stop offset="1" stop-color="#4059ff"/></linearGradient><pattern id="grid" width="45" height="45" patternUnits="userSpaceOnUse"><path d="M45 0H0V45" fill="none" stroke="#8aa4ff" stroke-opacity=".16"/></pattern></defs><rect width="900" height="1125" fill="url(#bg)"/><rect width="900" height="1125" fill="url(#grid)"/><circle cx="615" cy="510" r="360" fill="url(#glow)" opacity=".45"/><path d="M90 250H810M90 285H490" stroke="#55e6ff" stroke-opacity=".5"/><text x="90" y="130" fill="#55e6ff" font-family="Arial,sans-serif" font-size="30" font-weight="700" letter-spacing="7">TECHNOVA</text><text x="90" y="178" fill="#93a4cc" font-family="monospace" font-size="14" letter-spacing="3">TN / AI SYSTEMS / 01</text><text x="90" y="395" fill="white" font-family="Arial,sans-serif" font-size="82" font-weight="800" letter-spacing="-4">THE FUTURE</text><text x="90" y="475" fill="white" font-family="Arial,sans-serif" font-size="82" font-weight="800" letter-spacing="-4">IS <tspan fill="#55e6ff">INTELLIGENT.</tspan></text><text x="90" y="530" fill="#a9b5d2" font-family="monospace" font-size="16" letter-spacing="2">AI TECHNOLOGY / BUILT FOR WHAT'S NEXT</text><g transform="translate(450 660) rotate(-18)"><rect x="-125" y="-185" width="250" height="370" rx="35" fill="#071020" stroke="url(#device)" stroke-width="5"/><rect x="-95" y="-145" width="190" height="220" rx="18" fill="#0b2947" stroke="#55e6ff"/><circle cx="0" cy="-32" r="53" fill="none" stroke="#55e6ff" stroke-width="3"/><circle cx="0" cy="-32" r="17" fill="#55e6ff"/><path d="M-45 -32H45M0 -77V13" stroke="#55e6ff" stroke-width="2"/><path d="M-58 112H58" stroke="#7186ff" stroke-width="7" stroke-linecap="round"/></g><g fill="#9fdfff" font-family="monospace" font-size="13"><text x="700" y="700">CORE / 03</text><text x="700" y="728">NEURAL / ACTIVE</text><text x="90" y="1000">EXPLORE THE FUTURE <tspan fill="#55e6ff">→</tspan></text></g><path d="M90 1030H810" stroke="#55e6ff"/><text x="90" y="1075" fill="#8190b8" font-family="monospace" font-size="13" letter-spacing="2">FICTIONAL PRACTICE CAMPAIGN / 2026</text></svg>